<svg width="334" height="61" viewBox="0 0 334 61" fill="none" xmlns="http://www.w3.org/2000/svg">
<path d="M82.8835 30.7754H90.8132V41.1387C89.765 41.485 88.6758 41.763 87.5456 41.9727C86.4154 42.1732 85.1348 42.2734 83.7038 42.2734C81.7168 42.2734 80.0307 41.8815 78.6452 41.0977C77.2598 40.3138 76.2071 39.1562 75.487 37.625C74.767 36.0937 74.407 34.2116 74.407 31.9785C74.407 29.8822 74.808 28.0684 75.6101 26.5371C76.4213 25.0059 77.6016 23.821 79.1511 22.9824C80.7097 22.1439 82.6101 21.7246 84.8523 21.7246C85.9096 21.7246 86.9532 21.8385 87.9831 22.0664C89.0131 22.2943 89.9473 22.5905 90.7859 22.9551L89.3777 26.3457C88.767 26.0358 88.0697 25.776 87.2859 25.5664C86.502 25.3568 85.6817 25.252 84.8249 25.252C83.5945 25.252 82.5235 25.5345 81.612 26.0996C80.7097 26.6647 80.0079 27.4577 79.5066 28.4785C79.0144 29.4902 78.7683 30.6842 78.7683 32.0605C78.7683 33.3639 78.946 34.5215 79.3015 35.5332C79.657 36.5358 80.2175 37.3242 80.9831 37.8984C81.7487 38.4635 82.7468 38.7461 83.9773 38.7461C84.5788 38.7461 85.0847 38.7187 85.4948 38.6641C85.9141 38.6003 86.306 38.5365 86.6706 38.4727V34.3027H82.8835V30.7754ZM109.147 34.3301C109.147 35.6061 108.974 36.7363 108.628 37.7207C108.29 38.7051 107.794 39.5391 107.137 40.2227C106.49 40.8971 105.706 41.4076 104.786 41.7539C103.874 42.1003 102.844 42.2734 101.696 42.2734C100.62 42.2734 99.6316 42.1003 98.7292 41.7539C97.836 41.4076 97.0567 40.8971 96.3913 40.2227C95.7351 39.5391 95.2247 38.7051 94.8601 37.7207C94.5046 36.7363 94.3269 35.6061 94.3269 34.3301C94.3269 32.6348 94.6277 31.1992 95.2292 30.0234C95.8308 28.8477 96.6876 27.9544 97.7995 27.3437C98.9115 26.7331 100.238 26.4277 101.778 26.4277C103.209 26.4277 104.476 26.7331 105.579 27.3437C106.691 27.9544 107.561 28.8477 108.19 30.0234C108.828 31.1992 109.147 32.6348 109.147 34.3301ZM98.5788 34.3301C98.5788 35.3327 98.6882 36.1758 98.907 36.8594C99.1257 37.543 99.4675 38.0579 99.9323 38.4043C100.397 38.7507 101.003 38.9238 101.751 38.9238C102.489 38.9238 103.086 38.7507 103.542 38.4043C104.007 38.0579 104.344 37.543 104.553 36.8594C104.772 36.1758 104.882 35.3327 104.882 34.3301C104.882 33.3184 104.772 32.4798 104.553 31.8145C104.344 31.14 104.007 30.6341 103.542 30.2969C103.077 29.9596 102.471 29.791 101.723 29.791C100.62 29.791 99.8184 30.1693 99.3171 30.9258C98.8249 31.6823 98.5788 32.8171 98.5788 34.3301ZM116.229 42L110.405 26.7148H114.766L117.719 35.4238C117.884 35.9342 118.011 36.472 118.102 37.0371C118.203 37.6022 118.271 38.1081 118.307 38.5547H118.417C118.444 38.0716 118.508 37.5566 118.608 37.0098C118.718 36.4629 118.859 35.9342 119.032 35.4238L121.971 26.7148H126.333L120.509 42H116.229ZM134.796 26.4004C136.846 26.4004 138.419 26.847 139.512 27.7402C140.606 28.6335 141.153 29.9915 141.153 31.8145V42H138.241L137.434 39.9219H137.325C136.887 40.4687 136.441 40.9154 135.985 41.2617C135.529 41.6081 135.005 41.8633 134.413 42.0273C133.82 42.1914 133.1 42.2734 132.253 42.2734C131.35 42.2734 130.539 42.1003 129.819 41.7539C129.108 41.4076 128.548 40.8789 128.137 40.168C127.727 39.4479 127.522 38.5365 127.522 37.4336C127.522 35.8112 128.092 34.6172 129.231 33.8516C130.37 33.0768 132.079 32.6484 134.358 32.5664L137.01 32.4844V31.8145C137.01 31.0124 136.801 30.4245 136.382 30.0508C135.962 29.6771 135.379 29.4902 134.632 29.4902C133.893 29.4902 133.169 29.5951 132.458 29.8047C131.747 30.0143 131.036 30.2786 130.325 30.5977L128.944 27.7812C129.755 27.3529 130.662 27.0156 131.665 26.7695C132.676 26.5234 133.72 26.4004 134.796 26.4004ZM137.01 34.918L135.397 34.9727C134.048 35.0091 133.109 35.2507 132.581 35.6973C132.061 36.1439 131.801 36.7318 131.801 37.4609C131.801 38.099 131.988 38.5547 132.362 38.8281C132.736 39.0924 133.223 39.2246 133.825 39.2246C134.718 39.2246 135.47 38.9603 136.081 38.4316C136.701 37.903 137.01 37.151 137.01 36.1758V34.918ZM149.63 42H145.46V20.7266H149.63V42ZM170.11 25.252C169.299 25.252 168.579 25.4115 167.95 25.7305C167.33 26.0404 166.806 26.4915 166.378 27.084C165.958 27.6764 165.639 28.3919 165.421 29.2305C165.202 30.069 165.093 31.0124 165.093 32.0605C165.093 33.4733 165.266 34.681 165.612 35.6836C165.968 36.6771 166.514 37.4382 167.253 37.9668C167.991 38.4863 168.943 38.7461 170.11 38.7461C170.921 38.7461 171.732 38.6549 172.544 38.4727C173.364 38.2904 174.253 38.0306 175.21 37.6934V41.248C174.326 41.6126 173.455 41.8724 172.598 42.0273C171.742 42.1914 170.78 42.2734 169.714 42.2734C167.654 42.2734 165.958 41.8496 164.628 41.002C163.306 40.1452 162.326 38.9512 161.688 37.4199C161.05 35.8796 160.731 34.084 160.731 32.0332C160.731 30.5202 160.936 29.1348 161.346 27.877C161.757 26.6191 162.358 25.5299 163.151 24.6094C163.944 23.6888 164.924 22.9779 166.091 22.4766C167.257 21.9753 168.597 21.7246 170.11 21.7246C171.104 21.7246 172.097 21.8522 173.091 22.1074C174.093 22.3535 175.05 22.6953 175.962 23.1328L174.594 26.5781C173.847 26.2227 173.095 25.9128 172.339 25.6484C171.582 25.3841 170.839 25.252 170.11 25.252ZM193.038 34.3301C193.038 35.6061 192.865 36.7363 192.518 37.7207C192.181 38.7051 191.684 39.5391 191.028 40.2227C190.381 40.8971 189.597 41.4076 188.676 41.7539C187.765 42.1003 186.735 42.2734 185.587 42.2734C184.511 42.2734 183.522 42.1003 182.62 41.7539C181.727 41.4076 180.947 40.8971 180.282 40.2227C179.626 39.5391 179.115 38.7051 178.751 37.7207C178.395 36.7363 178.218 35.6061 178.218 34.3301C178.218 32.6348 178.518 31.1992 179.12 30.0234C179.721 28.8477 180.578 27.9544 181.69 27.3437C182.802 26.7331 184.128 26.4277 185.669 26.4277C187.1 26.4277 188.367 26.7331 189.469 27.3437C190.581 27.9544 191.452 28.8477 192.081 30.0234C192.719 31.1992 193.038 32.6348 193.038 34.3301ZM182.469 34.3301C182.469 35.3327 182.579 36.1758 182.798 36.8594C183.016 37.543 183.358 38.0579 183.823 38.4043C184.288 38.7507 184.894 38.9238 185.641 38.9238C186.38 38.9238 186.977 38.7507 187.432 38.4043C187.897 38.0579 188.234 37.543 188.444 36.8594C188.663 36.1758 188.772 35.3327 188.772 34.3301C188.772 33.3184 188.663 32.4798 188.444 31.8145C188.234 31.14 187.897 30.6341 187.432 30.2969C186.968 29.9596 186.361 29.791 185.614 29.791C184.511 29.791 183.709 30.1693 183.208 30.9258C182.716 31.6823 182.469 32.8171 182.469 34.3301ZM214.434 26.4277C216.166 26.4277 217.474 26.8743 218.358 27.7676C219.251 28.6517 219.698 30.0736 219.698 32.0332V42H215.514V33.0723C215.514 31.9785 215.328 31.1536 214.954 30.5977C214.58 30.0417 214.001 29.7637 213.218 29.7637C212.115 29.7637 211.331 30.1602 210.866 30.9531C210.401 31.737 210.169 32.8626 210.169 34.3301V42H205.999V33.0723C205.999 32.3431 205.917 31.7324 205.753 31.2402C205.589 30.748 205.338 30.3789 205.001 30.1328C204.663 29.8867 204.231 29.7637 203.702 29.7637C202.927 29.7637 202.316 29.9596 201.87 30.3516C201.432 30.7344 201.118 31.304 200.926 32.0605C200.744 32.8079 200.653 33.724 200.653 34.8086V42H196.483V26.7148H199.669L200.229 28.6699H200.462C200.772 28.1413 201.159 27.7129 201.624 27.3848C202.098 27.0566 202.617 26.8151 203.182 26.6602C203.747 26.5052 204.322 26.4277 204.905 26.4277C206.026 26.4277 206.974 26.61 207.749 26.9746C208.533 27.3392 209.134 27.9043 209.553 28.6699H209.923C210.378 27.8861 211.021 27.3164 211.85 26.9609C212.689 26.6055 213.55 26.4277 214.434 26.4277ZM241.942 26.4277C243.674 26.4277 244.982 26.8743 245.866 27.7676C246.759 28.6517 247.206 30.0736 247.206 32.0332V42H243.022V33.0723C243.022 31.9785 242.835 31.1536 242.462 30.5977C242.088 30.0417 241.509 29.7637 240.725 29.7637C239.622 29.7637 238.839 30.1602 238.374 30.9531C237.909 31.737 237.676 32.8626 237.676 34.3301V42H233.507V33.0723C233.507 32.3431 233.425 31.7324 233.26 31.2402C233.096 30.748 232.846 30.3789 232.509 30.1328C232.171 29.8867 231.738 29.7637 231.21 29.7637C230.435 29.7637 229.824 29.9596 229.378 30.3516C228.94 30.7344 228.626 31.304 228.434 32.0605C228.252 32.8079 228.161 33.724 228.161 34.8086V42H223.991V26.7148H227.176L227.737 28.6699H227.969C228.279 28.1413 228.667 27.7129 229.132 27.3848C229.606 27.0566 230.125 26.8151 230.69 26.6602C231.255 26.5052 231.829 26.4277 232.413 26.4277C233.534 26.4277 234.482 26.61 235.257 26.9746C236.04 27.3392 236.642 27.9043 237.061 28.6699H237.43C237.886 27.8861 238.529 27.3164 239.358 26.9609C240.197 26.6055 241.058 26.4277 241.942 26.4277ZM265.526 26.7148V42H262.327L261.766 40.0449H261.548C261.219 40.5645 260.809 40.9883 260.317 41.3164C259.825 41.6445 259.283 41.8861 258.69 42.041C258.098 42.196 257.482 42.2734 256.844 42.2734C255.751 42.2734 254.798 42.082 253.987 41.6992C253.176 41.3073 252.542 40.7012 252.087 39.8809C251.64 39.0605 251.417 37.9941 251.417 36.6816V26.7148H255.587V35.6426C255.587 36.7363 255.783 37.5612 256.175 38.1172C256.566 38.6732 257.191 38.9512 258.048 38.9512C258.895 38.9512 259.561 38.7598 260.044 38.377C260.527 37.985 260.864 37.4154 261.055 36.668C261.256 35.9115 261.356 34.9909 261.356 33.9062V26.7148H265.526ZM278.583 26.4277C280.214 26.4277 281.527 26.8743 282.52 27.7676C283.514 28.6517 284.01 30.0736 284.01 32.0332V42H279.841V33.0723C279.841 31.9785 279.64 31.1536 279.239 30.5977C278.847 30.0417 278.227 29.7637 277.38 29.7637C276.104 29.7637 275.233 30.1966 274.768 31.0625C274.303 31.9284 274.071 33.1771 274.071 34.8086V42H269.901V26.7148H273.087L273.647 28.6699H273.88C274.208 28.1413 274.613 27.7129 275.096 27.3848C275.589 27.0566 276.131 26.8151 276.723 26.6602C277.325 26.5052 277.945 26.4277 278.583 26.4277ZM292.473 26.7148V42H288.303V26.7148H292.473ZM290.395 20.7266C291.015 20.7266 291.548 20.8724 291.995 21.1641C292.441 21.4466 292.665 21.9798 292.665 22.7637C292.665 23.5384 292.441 24.0762 291.995 24.377C291.548 24.6686 291.015 24.8145 290.395 24.8145C289.766 24.8145 289.229 24.6686 288.782 24.377C288.344 24.0762 288.126 23.5384 288.126 22.7637C288.126 21.9798 288.344 21.4466 288.782 21.1641C289.229 20.8724 289.766 20.7266 290.395 20.7266ZM303.301 38.9512C303.757 38.9512 304.199 38.9056 304.628 38.8145C305.065 38.7233 305.498 38.6094 305.926 38.4727V41.5762C305.48 41.7767 304.924 41.9408 304.259 42.0684C303.602 42.2051 302.882 42.2734 302.098 42.2734C301.187 42.2734 300.367 42.1276 299.637 41.8359C298.917 41.5352 298.348 41.0202 297.928 40.291C297.518 39.5527 297.313 38.5273 297.313 37.2148V29.8457H295.317V28.082L297.614 26.6875L298.817 23.4609H301.483V26.7148H305.762V29.8457H301.483V37.2148C301.483 37.7982 301.647 38.2357 301.975 38.5273C302.313 38.8099 302.755 38.9512 303.301 38.9512ZM306.843 26.7148H311.409L314.294 35.3145C314.385 35.5879 314.462 35.8659 314.526 36.1484C314.59 36.431 314.645 36.7227 314.69 37.0234C314.736 37.3242 314.772 37.6387 314.8 37.9668H314.882C314.936 37.4746 315.009 37.0143 315.1 36.5859C315.201 36.1576 315.324 35.7337 315.469 35.3145L318.3 26.7148H322.77L316.303 43.9551C315.912 45.0124 315.401 45.8919 314.772 46.5938C314.143 47.3047 313.419 47.8379 312.598 48.1934C311.787 48.5488 310.894 48.7266 309.919 48.7266C309.445 48.7266 309.035 48.6992 308.688 48.6445C308.342 48.599 308.046 48.5488 307.8 48.4941V45.1855C307.991 45.2311 308.232 45.2721 308.524 45.3086C308.816 45.3451 309.121 45.3633 309.44 45.3633C310.024 45.3633 310.525 45.2402 310.944 44.9941C311.363 44.748 311.714 44.4154 311.997 43.9961C312.279 43.5859 312.503 43.1348 312.667 42.6426L312.913 41.8906L306.843 26.7148Z" fill="url(#paint0_linear_233_97)"/>
<path d="M82.8835 30.7754V30.2754H82.3835V30.7754H82.8835ZM90.8132 30.7754H91.3132V30.2754H90.8132V30.7754ZM90.8132 41.1387L90.9701 41.6134L91.3132 41.5V41.1387H90.8132ZM87.5456 41.9727L87.633 42.465L87.6368 42.4643L87.5456 41.9727ZM75.6101 26.5371L75.1682 26.303L75.1672 26.3051L75.6101 26.5371ZM79.1511 22.9824L78.9142 22.5421L78.9131 22.5427L79.1511 22.9824ZM87.9831 22.0664L87.8751 22.5546L87.9831 22.0664ZM90.7859 22.9551L91.2476 23.1469L91.4363 22.6926L90.9852 22.4965L90.7859 22.9551ZM89.3777 26.3457L89.1514 26.7916L89.6325 27.0357L89.8394 26.5375L89.3777 26.3457ZM87.2859 25.5664L87.415 25.0834L87.2859 25.5664ZM81.612 26.0996L81.3486 25.6747L81.3466 25.6758L81.612 26.0996ZM79.5066 28.4785L79.0578 28.2581L79.0569 28.2598L79.5066 28.4785ZM79.3015 35.5332L78.8298 35.6989L78.8302 35.7003L79.3015 35.5332ZM80.9831 37.8984L80.6831 38.2984L80.6862 38.3007L80.9831 37.8984ZM85.4948 38.6641L85.5609 39.1598L85.5701 39.1584L85.4948 38.6641ZM86.6706 38.4727L86.7568 38.9652L87.1706 38.8928V38.4727H86.6706ZM86.6706 34.3027H87.1706V33.8027H86.6706V34.3027ZM82.8835 34.3027H82.3835V34.8027H82.8835V34.3027ZM82.8835 31.2754H90.8132V30.2754H82.8835V31.2754ZM90.3132 30.7754V41.1387H91.3132V30.7754H90.3132ZM90.6563 40.6639C89.6305 41.0029 88.5633 41.2754 87.4544 41.481L87.6368 42.4643C88.7884 42.2507 89.8995 41.9672 90.9701 41.6134L90.6563 40.6639ZM87.4583 41.4803C86.3629 41.6747 85.1124 41.7734 83.7038 41.7734V42.7734C85.1573 42.7734 86.4679 42.6717 87.633 42.465L87.4583 41.4803ZM83.7038 41.7734C81.782 41.7734 80.1853 41.3945 78.8915 40.6625L78.399 41.5328C79.876 42.3685 81.6517 42.7734 83.7038 42.7734V41.7734ZM78.8915 40.6625C77.602 39.9329 76.6184 38.856 75.9395 37.4122L75.0346 37.8378C75.7957 39.4565 76.9176 40.6947 78.399 41.5328L78.8915 40.6625ZM75.9395 37.4122C75.2591 35.9653 74.907 34.1605 74.907 31.9785H73.907C73.907 34.2627 74.2749 36.2222 75.0346 37.8378L75.9395 37.4122ZM74.907 31.9785C74.907 29.946 75.2956 28.2151 76.053 26.7691L75.1672 26.3051C74.3204 27.9216 73.907 29.8184 73.907 31.9785H74.907ZM76.0519 26.7712C76.8161 25.3286 77.9248 24.2146 79.3891 23.4222L78.9131 22.5427C77.2784 23.4273 76.0264 24.6831 75.1682 26.303L76.0519 26.7712ZM79.388 23.4227C80.8569 22.6325 82.6712 22.2246 84.8523 22.2246V21.2246C82.549 21.2246 80.5625 21.6553 78.9142 22.5421L79.388 23.4227ZM84.8523 22.2246C85.8733 22.2246 86.8807 22.3346 87.8751 22.5546L88.0911 21.5782C87.0256 21.3425 85.9458 21.2246 84.8523 21.2246V22.2246ZM87.8751 22.5546C88.8784 22.7766 89.7815 23.0636 90.5865 23.4136L90.9852 22.4965C90.1132 22.1174 89.1478 21.812 88.0911 21.5782L87.8751 22.5546ZM90.3241 22.7633L88.9159 26.1539L89.8394 26.5375L91.2476 23.1469L90.3241 22.7633ZM89.6039 25.8998C88.9572 25.5716 88.2265 25.3004 87.415 25.0834L87.1567 26.0494C87.9129 26.2517 88.5768 26.5 89.1514 26.7916L89.6039 25.8998ZM87.415 25.0834C86.5868 24.8619 85.7229 24.752 84.8249 24.752V25.752C85.6405 25.752 86.4172 25.8517 87.1567 26.0494L87.415 25.0834ZM84.8249 24.752C83.5154 24.752 82.3503 25.0536 81.3486 25.6747L81.8755 26.5246C82.6967 26.0154 83.6735 25.752 84.8249 25.752V24.752ZM81.3466 25.6758C80.36 26.2937 79.5972 27.1597 79.0578 28.2581L79.9554 28.6989C80.4186 27.7557 81.0594 27.0357 81.8774 26.5234L81.3466 25.6758ZM79.0569 28.2598C78.525 29.3532 78.2683 30.6251 78.2683 32.0605H79.2683C79.2683 30.7434 79.5037 29.6273 79.9562 28.6972L79.0569 28.2598ZM78.2683 32.0605C78.2683 33.4086 78.452 34.6239 78.8298 35.6989L79.7732 35.3675C79.44 34.4191 79.2683 33.3192 79.2683 32.0605H78.2683ZM78.8302 35.7003C79.2148 36.785 79.8301 37.6586 80.6831 38.2984L81.2831 37.4984C80.6049 36.9898 80.0991 36.2867 79.7727 35.3661L78.8302 35.7003ZM80.6862 38.3007C81.56 38.9457 82.6713 39.2461 83.9773 39.2461V38.2461C82.8223 38.2461 81.9375 37.9814 81.2801 37.4962L80.6862 38.3007ZM83.9773 39.2461C84.592 39.2461 85.1215 39.2183 85.5609 39.1597L85.4288 38.1684C85.0479 38.2192 84.5657 38.2461 83.9773 38.2461V39.2461ZM85.5701 39.1584C85.9925 39.0941 86.3881 39.0297 86.7568 38.9652L86.5844 37.9801C86.224 38.0432 85.8357 38.1064 85.4196 38.1698L85.5701 39.1584ZM87.1706 38.4727V34.3027H86.1706V38.4727H87.1706ZM86.6706 33.8027H82.8835V34.8027H86.6706V33.8027ZM83.3835 34.3027V30.7754H82.3835V34.3027H83.3835ZM108.628 37.7207L108.156 37.5547L108.155 37.5587L108.628 37.7207ZM107.137 40.2227L106.777 39.8764L106.777 39.8765L107.137 40.2227ZM104.786 41.7539L104.61 41.2859L104.608 41.2865L104.786 41.7539ZM98.7292 41.7539L98.5485 42.2201L98.55 42.2207L98.7292 41.7539ZM96.3913 40.2227L96.0306 40.569L96.0354 40.5738L96.3913 40.2227ZM94.8601 37.7207L94.3898 37.8905L94.3912 37.8944L94.8601 37.7207ZM105.579 27.3437L105.337 27.7812L105.338 27.782L105.579 27.3437ZM108.19 30.0234L107.749 30.2593L107.751 30.2619L108.19 30.0234ZM103.542 38.4043L103.243 38.0033L103.239 38.0062L103.542 38.4043ZM104.553 36.8594L104.077 36.707L104.075 36.7128L104.553 36.8594ZM104.553 31.8145L104.076 31.9629L104.078 31.9706L104.553 31.8145ZM99.3171 30.9258L98.9003 30.6496L98.898 30.6531L99.3171 30.9258ZM108.647 34.3301C108.647 35.5618 108.48 36.6341 108.156 37.5547L109.099 37.8867C109.468 36.8386 109.647 35.6505 109.647 34.3301H108.647ZM108.155 37.5587C107.839 38.481 107.378 39.2503 106.777 39.8764L107.498 40.5689C108.21 39.8279 108.742 38.9291 109.101 37.8828L108.155 37.5587ZM106.777 39.8765C106.184 40.4943 105.464 40.9645 104.61 41.2859L104.962 42.2219C105.949 41.8506 106.797 41.3 107.498 40.5688L106.777 39.8765ZM104.608 41.2865C103.763 41.6078 102.794 41.7734 101.696 41.7734V42.7734C102.895 42.7734 103.986 42.5927 104.963 42.2213L104.608 41.2865ZM101.696 41.7734C100.675 41.7734 99.7475 41.6092 98.9084 41.2871L98.55 42.2207C99.5157 42.5913 100.566 42.7734 101.696 42.7734V41.7734ZM98.91 41.2877C98.0819 40.9666 97.3625 40.4951 96.7473 39.8715L96.0354 40.5738C96.7509 41.2991 97.5901 41.8485 98.5485 42.2201L98.91 41.2877ZM96.752 39.8764C96.1482 39.2474 95.6723 38.474 95.329 37.547L94.3912 37.8944C94.777 38.9361 95.322 39.8307 96.0306 40.5689L96.752 39.8764ZM95.3304 37.5509C94.9983 36.6314 94.8269 35.5605 94.8269 34.3301H93.8269C93.8269 35.6517 94.0109 36.8412 94.3898 37.8905L95.3304 37.5509ZM94.8269 34.3301C94.8269 32.6922 95.1176 31.3393 95.6743 30.2512L94.7841 29.7957C94.1377 31.0591 93.8269 32.5774 93.8269 34.3301H94.8269ZM95.6743 30.2512C96.2323 29.1606 97.0196 28.3425 98.0402 27.782L97.5588 26.9055C96.3555 27.5664 95.4292 28.5347 94.7841 29.7957L95.6743 30.2512ZM98.0402 27.782C99.0642 27.2197 100.304 26.9277 101.778 26.9277V25.9277C100.171 25.9277 98.7588 26.2465 97.5588 26.9055L98.0402 27.782ZM101.778 26.9277C103.136 26.9277 104.317 27.2168 105.337 27.7812L105.821 26.9063C104.635 26.2493 103.282 25.9277 101.778 25.9277V26.9277ZM105.338 27.782C106.361 28.3436 107.164 29.1643 107.749 30.2593L108.631 29.7876C107.959 28.531 107.021 27.5653 105.82 26.9055L105.338 27.782ZM107.751 30.2619C108.34 31.3475 108.647 32.6963 108.647 34.3301H109.647C109.647 32.5733 109.317 31.051 108.63 29.785L107.751 30.2619ZM98.0788 34.3301C98.0788 35.3655 98.1914 36.2637 98.4307 37.0118L99.3832 36.707C99.1851 36.0879 99.0788 35.2998 99.0788 34.3301H98.0788ZM98.4307 37.0118C98.6736 37.7707 99.067 38.3831 99.6336 38.8052L100.231 38.0034C99.868 37.7328 99.5778 37.3152 99.3832 36.707L98.4307 37.0118ZM99.6336 38.8052C100.207 39.2324 100.927 39.4238 101.751 39.4238V38.4238C101.08 38.4238 100.588 38.2689 100.231 38.0034L99.6336 38.8052ZM101.751 39.4238C102.566 39.4238 103.279 39.2318 103.844 38.8024L103.239 38.0062C102.893 38.2695 102.412 38.4238 101.751 38.4238V39.4238ZM103.84 38.8052C104.409 38.3817 104.798 37.7671 105.031 37.006L104.075 36.7128C103.89 37.3188 103.604 37.7341 103.243 38.0034L103.84 38.8052ZM105.03 37.0118C105.269 36.2637 105.382 35.3655 105.382 34.3301H104.382C104.382 35.2998 104.275 36.0879 104.077 36.707L105.03 37.0118ZM105.382 34.3301C105.382 33.2867 105.269 32.391 105.028 31.6583L104.078 31.9706C104.275 32.5686 104.382 33.35 104.382 34.3301H105.382ZM105.031 31.666C104.797 30.9127 104.406 30.3062 103.835 29.8922L103.248 30.7016C103.607 30.9621 103.891 31.3673 104.076 31.9629L105.031 31.666ZM103.835 29.8922C103.263 29.4767 102.545 29.291 101.723 29.291V30.291C102.397 30.291 102.891 30.4426 103.248 30.7016L103.835 29.8922ZM101.723 29.291C100.494 29.291 99.515 29.722 98.9003 30.6496L99.7339 31.202C100.122 30.6165 100.747 30.291 101.723 30.291V29.291ZM98.898 30.6531C98.3282 31.5288 98.0788 32.7788 98.0788 34.3301H99.0788C99.0788 32.8553 99.3216 31.8357 99.7362 31.1985L98.898 30.6531ZM116.229 42L115.762 42.178L115.885 42.5H116.229V42ZM110.405 26.7148V26.2148H109.679L109.938 26.8929L110.405 26.7148ZM114.766 26.7148L115.24 26.5543L115.125 26.2148H114.766V26.7148ZM117.719 35.4238L118.196 35.2708L118.193 35.2633L117.719 35.4238ZM118.102 37.0371L117.609 37.1167L117.61 37.1245L118.102 37.0371ZM118.307 38.5547L117.809 38.5954L117.847 39.0547H118.307V38.5547ZM118.417 38.5547V39.0547H118.889L118.916 38.5829L118.417 38.5547ZM118.608 37.0098L118.118 36.9117L118.116 36.9196L118.608 37.0098ZM119.032 35.4238L119.505 35.5845L119.506 35.5837L119.032 35.4238ZM121.971 26.7148V26.2148H121.612L121.498 26.5549L121.971 26.7148ZM126.333 26.7148L126.8 26.8929L127.058 26.2148H126.333V26.7148ZM120.509 42V42.5H120.853L120.976 42.178L120.509 42ZM116.696 41.822L110.872 26.5368L109.938 26.8929L115.762 42.178L116.696 41.822ZM110.405 27.2148H114.766V26.2148H110.405V27.2148ZM114.293 26.8754L117.246 35.5844L118.193 35.2633L115.24 26.5543L114.293 26.8754ZM117.243 35.5768C117.399 36.0617 117.521 36.5748 117.609 37.1167L118.596 36.9575C118.501 36.3692 118.368 35.8068 118.195 35.2708L117.243 35.5768ZM117.61 37.1245C117.708 37.6782 117.774 38.168 117.809 38.5954L118.806 38.514C118.768 38.0481 118.697 37.5263 118.595 36.9498L117.61 37.1245ZM118.307 39.0547H118.417V38.0547H118.307V39.0547ZM118.916 38.5829C118.942 38.1234 119.003 37.6293 119.1 37.0999L118.116 36.9196C118.013 37.484 117.946 38.0198 117.918 38.5264L118.916 38.5829ZM119.098 37.1078C119.204 36.5814 119.339 36.0737 119.505 35.5845L118.558 35.2632C118.378 35.7948 118.231 36.3444 118.118 36.9117L119.098 37.1078ZM119.506 35.5837L122.445 26.8747L121.498 26.5549L118.558 35.2639L119.506 35.5837ZM121.971 27.2148H126.333V26.2148H121.971V27.2148ZM125.866 26.5368L120.041 41.822L120.976 42.178L126.8 26.8929L125.866 26.5368ZM120.509 41.5H116.229V42.5H120.509V41.5ZM139.512 27.7402L139.829 27.353L139.512 27.7402ZM141.153 42V42.5H141.653V42H141.153ZM138.241 42L137.775 42.1809L137.899 42.5H138.241V42ZM137.434 39.9219L137.9 39.7409L137.777 39.4219H137.434V39.9219ZM137.325 39.9219V39.4219H137.085L136.934 39.6095L137.325 39.9219ZM129.819 41.7539L129.6 42.2034L129.602 42.2045L129.819 41.7539ZM128.137 40.168L127.703 40.4154L127.704 40.4178L128.137 40.168ZM129.231 33.8516L129.51 34.2666L129.512 34.265L129.231 33.8516ZM134.358 32.5664L134.343 32.0666L134.34 32.0667L134.358 32.5664ZM137.01 32.4844L137.026 32.9841L137.51 32.9691V32.4844H137.01ZM130.325 30.5977L129.876 30.8178L130.089 31.2517L130.53 31.0538L130.325 30.5977ZM128.944 27.7812L128.711 27.3391L128.282 27.5657L128.495 28.0014L128.944 27.7812ZM131.665 26.7695L131.547 26.2837L131.546 26.2839L131.665 26.7695ZM137.01 34.918H137.51V34.4007L136.994 34.4183L137.01 34.918ZM135.397 34.9727L135.411 35.4725L135.414 35.4724L135.397 34.9727ZM132.581 35.6973L132.258 35.3153L132.255 35.3181L132.581 35.6973ZM132.362 38.8281L132.067 39.2317L132.073 39.2363L132.362 38.8281ZM136.081 38.4316L135.756 38.0512L135.754 38.0536L136.081 38.4316ZM134.796 26.9004C136.782 26.9004 138.224 27.3338 139.196 28.1275L139.829 27.353C138.613 26.3602 136.911 25.9004 134.796 25.9004V26.9004ZM139.196 28.1275C140.141 28.8995 140.653 30.0945 140.653 31.8145H141.653C141.653 29.8886 141.071 28.3674 139.829 27.353L139.196 28.1275ZM140.653 31.8145V42H141.653V31.8145H140.653ZM141.153 41.5H138.241V42.5H141.153V41.5ZM138.707 41.8191L137.9 39.7409L136.968 40.1028L137.775 42.1809L138.707 41.8191ZM137.434 39.4219H137.325V40.4219H137.434V39.4219ZM136.934 39.6095C136.517 40.1312 136.099 40.5469 135.683 40.8636L136.288 41.6598C136.782 41.2838 137.258 40.8063 137.715 40.2342L136.934 39.6095ZM135.683 40.8636C135.281 41.1688 134.815 41.3971 134.279 41.5455L134.546 42.5092C135.195 42.3295 135.778 42.0473 136.288 41.6598L135.683 40.8636ZM134.279 41.5455C133.743 41.6939 133.071 41.7734 132.253 41.7734V42.7734C133.13 42.7734 133.897 42.6889 134.546 42.5092L134.279 41.5455ZM132.253 41.7734C131.416 41.7734 130.68 41.6132 130.036 41.3033L129.602 42.2045C130.398 42.5873 131.285 42.7734 132.253 42.7734V41.7734ZM130.038 41.3044C129.42 41.0035 128.933 40.5461 128.571 39.9181L127.704 40.4178C128.162 41.2117 128.796 41.8116 129.6 42.2034L130.038 41.3044ZM128.572 39.9205C128.217 39.2968 128.022 38.4774 128.022 37.4336H127.022C127.022 38.5955 127.238 39.5991 127.703 40.4154L128.572 39.9205ZM128.022 37.4336C128.022 35.9428 128.536 34.9214 129.51 34.2666L128.952 33.4366C127.648 34.313 127.022 35.6796 127.022 37.4336H128.022ZM129.512 34.265C130.538 33.5675 132.136 33.1467 134.376 33.0661L134.34 32.0667C132.023 32.1502 130.203 32.5862 128.95 33.4381L129.512 34.265ZM134.374 33.0662L137.026 32.9841L136.995 31.9846L134.343 32.0666L134.374 33.0662ZM137.51 32.4844V31.8145H136.51V32.4844H137.51ZM137.51 31.8145C137.51 30.9324 137.279 30.181 136.714 29.6775L136.049 30.424C136.323 30.6679 136.51 31.0923 136.51 31.8145H137.51ZM136.714 29.6775C136.177 29.1984 135.46 28.9902 134.632 28.9902V29.9902C135.298 29.9902 135.748 30.1558 136.049 30.424L136.714 29.6775ZM134.632 28.9902C133.845 28.9902 133.073 29.102 132.316 29.3251L132.599 30.2843C133.264 30.0881 133.941 29.9902 134.632 29.9902V28.9902ZM132.316 29.3251C131.583 29.5414 130.851 29.8137 130.12 30.1415L130.53 31.0538C131.221 30.7436 131.911 30.4872 132.599 30.2843L132.316 29.3251ZM130.774 30.3775L129.393 27.5611L128.495 28.0014L129.876 30.8178L130.774 30.3775ZM129.178 28.2234C129.948 27.8163 130.816 27.4927 131.784 27.2551L131.546 26.2839C130.508 26.5386 129.562 26.8894 128.711 27.3391L129.178 28.2234ZM131.783 27.2554C132.755 27.019 133.759 26.9004 134.796 26.9004V25.9004C133.682 25.9004 132.598 26.0279 131.547 26.2837L131.783 27.2554ZM136.994 34.4183L135.38 34.4729L135.414 35.4724L137.027 35.4177L136.994 34.4183ZM135.384 34.4728C134.013 34.5099 132.924 34.7525 132.258 35.3153L132.903 36.0792C133.295 35.7488 134.083 35.5084 135.411 35.4725L135.384 34.4728ZM132.255 35.3181C131.617 35.8664 131.301 36.5967 131.301 37.4609H132.301C132.301 36.8668 132.506 36.4213 132.907 36.0764L132.255 35.3181ZM131.301 37.4609C131.301 38.1936 131.52 38.8314 132.067 39.2316L132.657 38.4246C132.457 38.278 132.301 38.0043 132.301 37.4609H131.301ZM132.073 39.2363C132.554 39.5766 133.152 39.7246 133.825 39.7246V38.7246C133.295 38.7246 132.917 38.6083 132.651 38.4199L132.073 39.2363ZM133.825 39.7246C134.825 39.7246 135.697 39.4255 136.408 38.8097L135.754 38.0536C135.244 38.4951 134.612 38.7246 133.825 38.7246V39.7246ZM136.405 38.8121C137.159 38.1696 137.51 37.2657 137.51 36.1758H136.51C136.51 37.0364 136.243 37.6364 135.756 38.0512L136.405 38.8121ZM137.51 36.1758V34.918H136.51V36.1758H137.51ZM149.63 42V42.5H150.13V42H149.63ZM145.46 42H144.96V42.5H145.46V42ZM145.46 20.7266V20.2266H144.96V20.7266H145.46ZM149.63 20.7266H150.13V20.2266H149.63V20.7266ZM149.63 41.5H145.46V42.5H149.63V41.5ZM145.96 42V20.7266H144.96V42H145.96ZM145.46 21.2266H149.63V20.2266H145.46V21.2266ZM149.13 20.7266V42H150.13V20.7266H149.13ZM167.95 25.7305L168.174 26.1777L168.176 26.1764L167.95 25.7305ZM166.378 27.084L165.972 26.791L165.97 26.7951L166.378 27.084ZM165.612 35.6836L165.139 35.8469L165.141 35.852L165.612 35.6836ZM167.253 37.9668L166.962 38.3733L166.965 38.3757L167.253 37.9668ZM172.544 38.4727L172.435 37.9846L172.434 37.9848L172.544 38.4727ZM175.21 37.6934H175.71V36.987L175.044 37.2218L175.21 37.6934ZM175.21 41.248L175.4 41.7103L175.71 41.5827V41.248H175.21ZM172.598 42.0273L172.509 41.5353L172.504 41.5363L172.598 42.0273ZM164.628 41.002L164.356 41.4215L164.359 41.4237L164.628 41.002ZM161.688 37.4199L161.226 37.6113L161.227 37.6122L161.688 37.4199ZM173.091 22.1074L172.966 22.5917L172.971 22.593L173.091 22.1074ZM175.962 23.1328L176.426 23.3172L176.598 22.8838L176.178 22.682L175.962 23.1328ZM174.594 26.5781L174.38 27.0297L174.862 27.2591L175.059 26.7625L174.594 26.5781ZM170.11 24.752C169.232 24.752 168.433 24.925 167.724 25.2846L168.176 26.1764C168.725 25.8979 169.366 25.752 170.11 25.752V24.752ZM167.726 25.2833C167.03 25.6312 166.445 26.137 165.972 26.791L166.783 27.377C167.167 26.8461 167.63 26.4496 168.174 26.1777L167.726 25.2833ZM165.97 26.7951C165.509 27.4453 165.168 28.2184 164.937 29.1043L165.904 29.3567C166.111 28.5654 166.407 27.9075 166.786 27.3728L165.97 26.7951ZM164.937 29.1043C164.705 29.9915 164.593 30.9783 164.593 32.0605H165.593C165.593 31.0464 165.698 30.1465 165.904 29.3567L164.937 29.1043ZM164.593 32.0605C164.593 33.5116 164.77 34.7776 165.139 35.8469L166.085 35.5203C165.761 34.5844 165.593 33.435 165.593 32.0605H164.593ZM165.141 35.852C165.525 36.9253 166.128 37.7763 166.962 38.3733L167.544 37.5603C166.901 37.1 166.41 36.4288 166.083 35.5152L165.141 35.852ZM166.965 38.3757C167.809 38.9697 168.87 39.2461 170.11 39.2461V38.2461C169.016 38.2461 168.173 38.0029 167.54 37.5579L166.965 38.3757ZM170.11 39.2461C170.959 39.2461 171.807 39.1507 172.653 38.9605L172.434 37.9848C171.658 38.1592 170.883 38.2461 170.11 38.2461V39.2461ZM172.652 38.9607C173.496 38.7733 174.404 38.5075 175.376 38.1649L175.044 37.2218C174.102 37.5537 173.232 37.8074 172.435 37.9846L172.652 38.9607ZM174.71 37.6934V41.248H175.71V37.6934H174.71ZM175.019 40.7858C174.165 41.1382 173.328 41.3873 172.509 41.5353L172.687 42.5194C173.582 42.3575 174.487 42.0871 175.4 41.7103L175.019 40.7858ZM172.504 41.5363C171.684 41.6933 170.755 41.7734 169.714 41.7734V42.7734C170.805 42.7734 171.799 42.6896 172.692 42.5184L172.504 41.5363ZM169.714 41.7734C167.72 41.7734 166.126 41.3633 164.896 40.5802L164.359 41.4237C165.791 42.3359 167.587 42.7734 169.714 42.7734V41.7734ZM164.9 40.5824C163.667 39.7835 162.751 38.671 162.15 37.2276L161.227 37.6122C161.901 39.2314 162.945 40.5068 164.356 41.4215L164.9 40.5824ZM162.15 37.2286C161.542 35.7611 161.231 34.033 161.231 32.0332H160.231C160.231 34.135 160.558 35.998 161.226 37.6113L162.15 37.2286ZM161.231 32.0332C161.231 30.5654 161.43 29.2331 161.822 28.032L160.871 27.7219C160.442 29.0364 160.231 30.475 160.231 32.0332H161.231ZM161.822 28.032C162.213 26.8314 162.784 25.8018 163.53 24.9357L162.772 24.2831C161.932 25.2581 161.3 26.4068 160.871 27.7219L161.822 28.032ZM163.53 24.9357C164.271 24.0753 165.188 23.4086 166.288 22.9359L165.893 22.0172C164.66 22.5471 163.617 23.3023 162.772 24.2831L163.53 24.9357ZM166.288 22.9359C167.382 22.4661 168.652 22.2246 170.11 22.2246V21.2246C168.542 21.2246 167.133 21.4845 165.893 22.0172L166.288 22.9359ZM170.11 22.2246C171.06 22.2246 172.012 22.3466 172.966 22.5917L173.215 21.6231C172.182 21.3578 171.147 21.2246 170.11 21.2246V22.2246ZM172.971 22.593C173.941 22.8311 174.866 23.1613 175.745 23.5836L176.178 22.682C175.235 22.2293 174.245 21.876 173.21 21.6218L172.971 22.593ZM175.497 22.9484L174.13 26.3937L175.059 26.7625L176.426 23.3172L175.497 22.9484ZM174.809 26.1266C174.046 25.7637 173.278 25.4469 172.504 25.1764L172.174 26.1205C172.913 26.3787 173.648 26.6817 174.38 27.0297L174.809 26.1266ZM172.504 25.1764C171.699 24.8954 170.901 24.752 170.11 24.752V25.752C170.778 25.752 171.465 25.8728 172.174 26.1205L172.504 25.1764ZM192.518 37.7207L192.047 37.5547L192.045 37.5587L192.518 37.7207ZM191.028 40.2227L190.667 39.8764L190.667 39.8765L191.028 40.2227ZM188.676 41.7539L188.5 41.2859L188.499 41.2865L188.676 41.7539ZM182.62 41.7539L182.439 42.2201L182.441 42.2207L182.62 41.7539ZM180.282 40.2227L179.921 40.569L179.926 40.5738L180.282 40.2227ZM178.751 37.7207L178.28 37.8905L178.282 37.8944L178.751 37.7207ZM189.469 27.3437L189.227 27.7812L189.229 27.782L189.469 27.3437ZM192.081 30.0234L191.64 30.2593L191.641 30.2619L192.081 30.0234ZM187.432 38.4043L187.134 38.0033L187.13 38.0062L187.432 38.4043ZM188.444 36.8594L187.968 36.707L187.966 36.7128L188.444 36.8594ZM188.444 31.8145L187.967 31.9629L187.969 31.9706L188.444 31.8145ZM183.208 30.9258L182.791 30.6496L182.789 30.6531L183.208 30.9258ZM192.538 34.3301C192.538 35.5618 192.371 36.6341 192.047 37.5547L192.99 37.8867C193.359 36.8386 193.538 35.6505 193.538 34.3301H192.538ZM192.045 37.5587C191.729 38.481 191.268 39.2503 190.667 39.8764L191.389 40.5689C192.1 39.8279 192.633 38.9291 192.991 37.8828L192.045 37.5587ZM190.667 39.8765C190.075 40.4943 189.355 40.9645 188.5 41.2859L188.853 42.2219C189.839 41.8506 190.687 41.3 191.389 40.5688L190.667 39.8765ZM188.499 41.2865C187.653 41.6078 186.685 41.7734 185.587 41.7734V42.7734C186.785 42.7734 187.877 42.5927 188.854 42.2213L188.499 41.2865ZM185.587 41.7734C184.565 41.7734 183.638 41.6092 182.799 41.2871L182.441 42.2207C183.406 42.5913 184.457 42.7734 185.587 42.7734V41.7734ZM182.801 41.2877C181.972 40.9666 181.253 40.4951 180.638 39.8715L179.926 40.5738C180.642 41.2991 181.481 41.8485 182.439 42.2201L182.801 41.2877ZM180.643 39.8764C180.039 39.2474 179.563 38.474 179.22 37.547L178.282 37.8944C178.668 38.9361 179.213 39.8307 179.921 40.5689L180.643 39.8764ZM179.221 37.5509C178.889 36.6314 178.718 35.5605 178.718 34.3301H177.718C177.718 35.6517 177.902 36.8412 178.28 37.8905L179.221 37.5509ZM178.718 34.3301C178.718 32.6922 179.008 31.3393 179.565 30.2512L178.675 29.7957C178.028 31.0591 177.718 32.5774 177.718 34.3301H178.718ZM179.565 30.2512C180.123 29.1606 180.91 28.3425 181.931 27.782L181.449 26.9055C180.246 27.5664 179.32 28.5347 178.675 29.7957L179.565 30.2512ZM181.931 27.782C182.955 27.2197 184.195 26.9277 185.669 26.9277V25.9277C184.062 25.9277 182.649 26.2465 181.449 26.9055L181.931 27.782ZM185.669 26.9277C187.027 26.9277 188.208 27.2168 189.227 27.7812L189.712 26.9063C188.525 26.2493 187.173 25.9277 185.669 25.9277V26.9277ZM189.229 27.782C190.251 28.3436 191.054 29.1643 191.64 30.2593L192.522 29.7876C191.85 28.531 190.912 27.5653 189.71 26.9055L189.229 27.782ZM191.641 30.2619C192.23 31.3475 192.538 32.6963 192.538 34.3301H193.538C193.538 32.5733 193.207 31.051 192.52 29.785L191.641 30.2619ZM181.969 34.3301C181.969 35.3655 182.082 36.2637 182.321 37.0118L183.274 36.707C183.076 36.0879 182.969 35.2998 182.969 34.3301H181.969ZM182.321 37.0118C182.564 37.7707 182.958 38.3831 183.524 38.8052L184.122 38.0034C183.759 37.7328 183.468 37.3152 183.274 36.707L182.321 37.0118ZM183.524 38.8052C184.097 39.2324 184.818 39.4238 185.641 39.4238V38.4238C184.97 38.4238 184.478 38.2689 184.122 38.0034L183.524 38.8052ZM185.641 39.4238C186.457 39.4238 187.17 39.2318 187.735 38.8024L187.13 38.0062C186.783 38.2695 186.302 38.4238 185.641 38.4238V39.4238ZM187.731 38.8052C188.299 38.3817 188.689 37.7671 188.922 37.006L187.966 36.7128C187.78 37.3188 187.495 37.7341 187.134 38.0034L187.731 38.8052ZM188.92 37.0118C189.16 36.2637 189.272 35.3655 189.272 34.3301H188.272C188.272 35.2998 188.166 36.0879 187.968 36.707L188.92 37.0118ZM189.272 34.3301C189.272 33.2867 189.16 32.391 188.919 31.6583L187.969 31.9706C188.166 32.5686 188.272 33.35 188.272 34.3301H189.272ZM188.922 31.666C188.687 30.9127 188.297 30.3062 187.726 29.8922L187.139 30.7016C187.498 30.9621 187.781 31.3673 187.967 31.9629L188.922 31.666ZM187.726 29.8922C187.153 29.4767 186.435 29.291 185.614 29.291V30.291C186.288 30.291 186.782 30.4426 187.139 30.7016L187.726 29.8922ZM185.614 29.291C184.385 29.291 183.406 29.722 182.791 30.6496L183.625 31.202C184.013 30.6165 184.637 30.291 185.614 30.291V29.291ZM182.789 30.6531C182.219 31.5288 181.969 32.7788 181.969 34.3301H182.969C182.969 32.8553 183.212 31.8357 183.627 31.1985L182.789 30.6531ZM218.358 27.7676L218.003 28.1193L218.006 28.1229L218.358 27.7676ZM219.698 42V42.5H220.198V42H219.698ZM215.514 42H215.014V42.5H215.514V42ZM210.866 30.9531L211.296 31.2082L211.297 31.206L210.866 30.9531ZM210.169 42V42.5H210.669V42H210.169ZM205.999 42H205.499V42.5H205.999V42ZM201.87 30.3516L202.199 30.7279L202.2 30.7274L201.87 30.3516ZM200.926 32.0605L200.442 31.9379L200.441 31.9421L200.926 32.0605ZM200.653 42V42.5H201.153V42H200.653ZM196.483 42H195.983V42.5H196.483V42ZM196.483 26.7148V26.2148H195.983V26.7148H196.483ZM199.669 26.7148L200.149 26.577L200.045 26.2148H199.669V26.7148ZM200.229 28.6699L199.749 28.8077L199.852 29.1699H200.229V28.6699ZM200.462 28.6699V29.1699H200.748L200.893 28.9228L200.462 28.6699ZM201.624 27.3848L201.339 26.9737L201.335 26.9763L201.624 27.3848ZM207.749 26.9746L207.536 27.427L207.538 27.428L207.749 26.9746ZM209.553 28.6699L209.115 28.9101L209.257 29.1699H209.553V28.6699ZM209.923 28.6699V29.1699H210.21L210.355 28.9212L209.923 28.6699ZM211.85 26.9609L211.655 26.5006L211.653 26.5014L211.85 26.9609ZM214.434 26.9277C216.084 26.9277 217.244 27.3522 218.003 28.1193L218.714 27.4158C217.705 26.3965 216.248 25.9277 214.434 25.9277V26.9277ZM218.006 28.1229C218.763 28.872 219.198 30.1343 219.198 32.0332H220.198C220.198 30.0128 219.74 28.4313 218.71 27.4122L218.006 28.1229ZM219.198 32.0332V42H220.198V32.0332H219.198ZM219.698 41.5H215.514V42.5H219.698V41.5ZM216.014 42V33.0723H215.014V42H216.014ZM216.014 33.0723C216.014 31.9362 215.823 30.9944 215.369 30.3187L214.539 30.8766C214.832 31.3129 215.014 32.0208 215.014 33.0723H216.014ZM215.369 30.3187C214.885 29.5994 214.135 29.2637 213.218 29.2637V30.2637C213.868 30.2637 214.275 30.4839 214.539 30.8766L215.369 30.3187ZM213.218 29.2637C211.979 29.2637 211.008 29.7213 210.435 30.7003L211.297 31.206C211.653 30.599 212.25 30.2637 213.218 30.2637V29.2637ZM210.436 30.6981C209.905 31.5927 209.669 32.8223 209.669 34.3301H210.669C210.669 32.903 210.897 31.8812 211.296 31.2082L210.436 30.6981ZM209.669 34.3301V42H210.669V34.3301H209.669ZM210.169 41.5H205.999V42.5H210.169V41.5ZM206.499 42V33.0723H205.499V42H206.499ZM206.499 33.0723C206.499 32.3094 206.413 31.6413 206.227 31.0821L205.278 31.3983C205.42 31.8235 205.499 32.3768 205.499 33.0723H206.499ZM206.227 31.0821C206.038 30.5155 205.735 30.0498 205.295 29.7289L204.706 30.5367C204.941 30.708 205.139 30.9806 205.278 31.3983L206.227 31.0821ZM205.295 29.7289C204.852 29.4055 204.308 29.2637 203.702 29.2637V30.2637C204.153 30.2637 204.475 30.368 204.706 30.5367L205.295 29.7289ZM203.702 29.2637C202.843 29.2637 202.103 29.482 201.54 29.9757L202.2 30.7274C202.53 30.4373 203.011 30.2637 203.702 30.2637V29.2637ZM201.541 29.9753C201.005 30.4443 200.65 31.1161 200.442 31.9379L201.411 32.1832C201.586 31.492 201.86 31.0245 202.199 30.7279L201.541 29.9753ZM200.441 31.9421C200.246 32.7404 200.153 33.6989 200.153 34.8086H201.153C201.153 33.749 201.242 32.8754 201.412 32.179L200.441 31.9421ZM200.153 34.8086V42H201.153V34.8086H200.153ZM200.653 41.5H196.483V42.5H200.653V41.5ZM196.983 42V26.7148H195.983V42H196.983ZM196.483 27.2148H199.669V26.2148H196.483V27.2148ZM199.188 26.8526L199.749 28.8077L200.71 28.5321L200.149 26.577L199.188 26.8526ZM200.229 29.1699H200.462V28.1699H200.229V29.1699ZM200.893 28.9228C201.17 28.4508 201.51 28.0772 201.912 27.7932L201.335 26.9763C200.808 27.3486 200.373 27.8317 200.03 28.4171L200.893 28.9228ZM201.908 27.7959C202.335 27.5004 202.803 27.2826 203.315 27.1424L203.05 26.178C202.432 26.3476 201.86 26.6129 201.339 26.9737L201.908 27.7959ZM203.315 27.1424C203.837 26.9992 204.367 26.9277 204.905 26.9277V25.9277C204.277 25.9277 203.658 26.0112 203.05 26.178L203.315 27.1424ZM204.905 26.9277C205.974 26.9277 206.845 27.1019 207.536 27.427L207.962 26.5222C207.103 26.1182 206.078 25.9277 204.905 25.9277V26.9277ZM207.538 27.428C208.224 27.7471 208.746 28.237 209.115 28.9101L209.992 28.4298C209.522 27.5716 208.841 26.9313 207.96 26.5212L207.538 27.428ZM209.553 29.1699H209.923V28.1699H209.553V29.1699ZM210.355 28.9212C210.757 28.2298 211.317 27.7334 212.047 27.4205L211.653 26.5014C210.725 26.8994 210 27.5423 209.49 28.4186L210.355 28.9212ZM212.045 27.4213C212.824 27.0912 213.619 26.9277 214.434 26.9277V25.9277C213.481 25.9277 212.554 26.1198 211.655 26.5006L212.045 27.4213ZM245.866 27.7676L245.511 28.1193L245.514 28.1229L245.866 27.7676ZM247.206 42V42.5H247.706V42H247.206ZM243.022 42H242.522V42.5H243.022V42ZM238.374 30.9531L238.804 31.2082L238.805 31.206L238.374 30.9531ZM237.676 42V42.5H238.176V42H237.676ZM233.507 42H233.007V42.5H233.507V42ZM229.378 30.3516L229.707 30.7279L229.707 30.7274L229.378 30.3516ZM228.434 32.0605L227.95 31.9379L227.949 31.9421L228.434 32.0605ZM228.161 42V42.5H228.661V42H228.161ZM223.991 42H223.491V42.5H223.991V42ZM223.991 26.7148V26.2148H223.491V26.7148H223.991ZM227.176 26.7148L227.657 26.577L227.553 26.2148H227.176V26.7148ZM227.737 28.6699L227.256 28.8077L227.36 29.1699H227.737V28.6699ZM227.969 28.6699V29.1699H228.256L228.401 28.9228L227.969 28.6699ZM229.132 27.3848L228.847 26.9737L228.843 26.9763L229.132 27.3848ZM235.257 26.9746L235.044 27.427L235.046 27.428L235.257 26.9746ZM237.061 28.6699L236.623 28.9101L236.765 29.1699H237.061V28.6699ZM237.43 28.6699V29.1699H237.718L237.863 28.9212L237.43 28.6699ZM239.358 26.9609L239.163 26.5006L239.161 26.5014L239.358 26.9609ZM241.942 26.9277C243.592 26.9277 244.751 27.3522 245.511 28.1193L246.221 27.4158C245.212 26.3965 243.756 25.9277 241.942 25.9277V26.9277ZM245.514 28.1229C246.271 28.872 246.706 30.1343 246.706 32.0332H247.706C247.706 30.0128 247.247 28.4313 246.218 27.4122L245.514 28.1229ZM246.706 32.0332V42H247.706V32.0332H246.706ZM247.206 41.5H243.022V42.5H247.206V41.5ZM243.522 42V33.0723H242.522V42H243.522ZM243.522 33.0723C243.522 31.9362 243.331 30.9944 242.877 30.3187L242.047 30.8766C242.34 31.3129 242.522 32.0208 242.522 33.0723H243.522ZM242.877 30.3187C242.393 29.5994 241.643 29.2637 240.725 29.2637V30.2637C241.375 30.2637 241.783 30.4839 242.047 30.8766L242.877 30.3187ZM240.725 29.2637C239.487 29.2637 238.516 29.7213 237.942 30.7003L238.805 31.206C239.161 30.599 239.758 30.2637 240.725 30.2637V29.2637ZM237.944 30.6981C237.413 31.5927 237.176 32.8223 237.176 34.3301H238.176C238.176 32.903 238.405 31.8812 238.804 31.2082L237.944 30.6981ZM237.176 34.3301V42H238.176V34.3301H237.176ZM237.676 41.5H233.507V42.5H237.676V41.5ZM234.007 42V33.0723H233.007V42H234.007ZM234.007 33.0723C234.007 32.3094 233.921 31.6413 233.735 31.0821L232.786 31.3983C232.928 31.8235 233.007 32.3768 233.007 33.0723H234.007ZM233.735 31.0821C233.546 30.5155 233.243 30.0498 232.803 29.7289L232.214 30.5367C232.449 30.708 232.647 30.9806 232.786 31.3983L233.735 31.0821ZM232.803 29.7289C232.36 29.4055 231.816 29.2637 231.21 29.2637V30.2637C231.661 30.2637 231.983 30.368 232.214 30.5367L232.803 29.7289ZM231.21 29.2637C230.351 29.2637 229.611 29.482 229.048 29.9757L229.707 30.7274C230.038 30.4373 230.519 30.2637 231.21 30.2637V29.2637ZM229.048 29.9753C228.512 30.4443 228.158 31.1161 227.95 31.9379L228.919 32.1832C229.094 31.492 229.368 31.0245 229.707 30.7279L229.048 29.9753ZM227.949 31.9421C227.754 32.7404 227.661 33.6989 227.661 34.8086H228.661C228.661 33.749 228.75 32.8754 228.92 32.179L227.949 31.9421ZM227.661 34.8086V42H228.661V34.8086H227.661ZM228.161 41.5H223.991V42.5H228.161V41.5ZM224.491 42V26.7148H223.491V42H224.491ZM223.991 27.2148H227.176V26.2148H223.991V27.2148ZM226.696 26.8526L227.256 28.8077L228.218 28.5321L227.657 26.577L226.696 26.8526ZM227.737 29.1699H227.969V28.1699H227.737V29.1699ZM228.401 28.9228C228.677 28.4508 229.018 28.0772 229.42 27.7932L228.843 26.9763C228.316 27.3486 227.881 27.8317 227.538 28.4171L228.401 28.9228ZM229.416 27.7959C229.843 27.5004 230.311 27.2826 230.822 27.1424L230.558 26.178C229.939 26.3476 229.368 26.6129 228.847 26.9737L229.416 27.7959ZM230.822 27.1424C231.345 26.9992 231.874 26.9277 232.413 26.9277V25.9277C231.785 25.9277 231.166 26.0112 230.558 26.178L230.822 27.1424ZM232.413 26.9277C233.482 26.9277 234.353 27.1019 235.044 27.427L235.469 26.5222C234.611 26.1182 233.586 25.9277 232.413 25.9277V26.9277ZM235.046 27.428C235.732 27.7471 236.254 28.237 236.623 28.9101L237.5 28.4298C237.03 27.5716 236.349 26.9313 235.467 26.5212L235.046 27.428ZM237.061 29.1699H237.43V28.1699H237.061V29.1699ZM237.863 28.9212C238.265 28.2298 238.825 27.7334 239.555 27.4205L239.161 26.5014C238.232 26.8994 237.508 27.5423 236.998 28.4186L237.863 28.9212ZM239.553 27.4213C240.332 27.0912 241.127 26.9277 241.942 26.9277V25.9277C240.989 25.9277 240.061 26.1198 239.163 26.5006L239.553 27.4213ZM265.526 26.7148H266.026V26.2148H265.526V26.7148ZM265.526 42V42.5H266.026V42H265.526ZM262.327 42L261.846 42.1378L261.95 42.5H262.327V42ZM261.766 40.0449L262.247 39.9071L262.143 39.5449H261.766V40.0449ZM261.548 40.0449V39.5449H261.272L261.125 39.7779L261.548 40.0449ZM253.987 41.6992L253.77 42.1494L253.774 42.1514L253.987 41.6992ZM252.087 39.8809L251.648 40.12L251.65 40.1237L252.087 39.8809ZM251.417 26.7148V26.2148H250.917V26.7148H251.417ZM255.587 26.7148H256.087V26.2148H255.587V26.7148ZM256.175 38.1172L256.583 37.8291L256.175 38.1172ZM260.044 38.377L260.354 38.7689L260.359 38.7652L260.044 38.377ZM261.055 36.668L260.572 36.5399L260.571 36.5439L261.055 36.668ZM261.356 26.7148V26.2148H260.856V26.7148H261.356ZM265.026 26.7148V42H266.026V26.7148H265.026ZM265.526 41.5H262.327V42.5H265.526V41.5ZM262.808 41.8622L262.247 39.9071L261.286 40.1827L261.846 42.1378L262.808 41.8622ZM261.766 39.5449H261.548V40.5449H261.766V39.5449ZM261.125 39.7779C260.833 40.2405 260.471 40.6127 260.04 40.9004L260.594 41.7324C261.147 41.3639 261.606 40.8884 261.97 40.3119L261.125 39.7779ZM260.04 40.9004C259.595 41.1966 259.104 41.4159 258.564 41.5573L258.817 42.5247C259.461 42.3563 260.054 42.0924 260.594 41.7324L260.04 40.9004ZM258.564 41.5573C258.014 41.701 257.442 41.7734 256.844 41.7734V42.7734C257.523 42.7734 258.181 42.6909 258.817 42.5247L258.564 41.5573ZM256.844 41.7734C255.809 41.7734 254.932 41.5922 254.2 41.247L253.774 42.1514C254.665 42.5718 255.693 42.7734 256.844 42.7734V41.7734ZM254.205 41.249C253.49 40.9039 252.932 40.3722 252.524 39.638L251.65 40.1237C252.153 41.0301 252.861 41.7107 253.77 42.1494L254.205 41.249ZM252.526 39.6418C252.132 38.9185 251.917 37.9426 251.917 36.6816H250.917C250.917 38.0457 251.148 39.2026 251.648 40.1199L252.526 39.6418ZM251.917 36.6816V26.7148H250.917V36.6816H251.917ZM251.417 27.2148H255.587V26.2148H251.417V27.2148ZM255.087 26.7148V35.6426H256.087V26.7148H255.087ZM255.087 35.6426C255.087 36.7819 255.288 37.7277 255.766 38.4053L256.583 37.8291C256.277 37.3946 256.087 36.6907 256.087 35.6426H255.087ZM255.766 38.4053C256.276 39.1285 257.075 39.4512 258.048 39.4512V38.4512C257.306 38.4512 256.857 38.2178 256.583 37.8291L255.766 38.4053ZM258.048 39.4512C258.966 39.4512 259.755 39.2438 260.354 38.7688L259.733 37.9851C259.366 38.2757 258.824 38.4512 258.048 38.4512V39.4512ZM260.359 38.7652C260.943 38.2909 261.328 37.618 261.54 36.792L260.571 36.5439C260.4 37.2127 260.11 37.6792 259.729 37.9887L260.359 38.7652ZM261.539 36.7961C261.754 35.9852 261.856 35.0188 261.856 33.9062H260.856C260.856 34.9629 260.758 35.8377 260.572 36.5399L261.539 36.7961ZM261.856 33.9062V26.7148H260.856V33.9062H261.856ZM261.356 27.2148H265.526V26.2148H261.356V27.2148ZM282.52 27.7676L282.186 28.1394L282.188 28.1411L282.52 27.7676ZM284.01 42V42.5H284.51V42H284.01ZM279.841 42H279.341V42.5H279.841V42ZM279.239 30.5977L278.83 30.8858L278.833 30.8902L279.239 30.5977ZM274.071 42V42.5H274.571V42H274.071ZM269.901 42H269.401V42.5H269.901V42ZM269.901 26.7148V26.2148H269.401V26.7148H269.901ZM273.087 26.7148L273.567 26.577L273.463 26.2148H273.087V26.7148ZM273.647 28.6699L273.167 28.8077L273.27 29.1699H273.647V28.6699ZM273.88 28.6699V29.1699H274.158L274.304 28.9336L273.88 28.6699ZM275.096 27.3848L274.819 26.9687L274.815 26.9712L275.096 27.3848ZM276.723 26.6602L276.599 26.176L276.597 26.1764L276.723 26.6602ZM278.583 26.9277C280.119 26.9277 281.304 27.346 282.186 28.1394L282.855 27.3958C281.75 26.4027 280.309 25.9277 278.583 25.9277V26.9277ZM282.188 28.1411C283.032 28.8927 283.51 30.1478 283.51 32.0332H284.51C284.51 29.9994 283.995 28.4107 282.853 27.3941L282.188 28.1411ZM283.51 32.0332V42H284.51V32.0332H283.51ZM284.01 41.5H279.841V42.5H284.01V41.5ZM280.341 42V33.0723H279.341V42H280.341ZM280.341 33.0723C280.341 31.9312 280.134 30.9835 279.645 30.3052L278.833 30.8902C279.146 31.3238 279.341 32.0258 279.341 33.0723H280.341ZM279.648 30.3096C279.139 29.5878 278.345 29.2637 277.38 29.2637V30.2637C278.11 30.2637 278.555 30.4955 278.83 30.8857L279.648 30.3096ZM277.38 29.2637C275.983 29.2637 274.906 29.7483 274.328 30.826L275.209 31.299C275.56 30.6449 276.224 30.2637 277.38 30.2637V29.2637ZM274.328 30.826C273.806 31.7976 273.571 33.1427 273.571 34.8086H274.571C274.571 33.2115 274.801 32.0591 275.209 31.299L274.328 30.826ZM273.571 34.8086V42H274.571V34.8086H273.571ZM274.071 41.5H269.901V42.5H274.071V41.5ZM270.401 42V26.7148H269.401V42H270.401ZM269.901 27.2148H273.087V26.2148H269.901V27.2148ZM272.606 26.8526L273.167 28.8077L274.128 28.5321L273.567 26.577L272.606 26.8526ZM273.647 29.1699H273.88V28.1699H273.647V29.1699ZM274.304 28.9336C274.598 28.4605 274.956 28.0846 275.377 27.7984L274.815 26.9712C274.271 27.3412 273.817 27.8221 273.455 28.4062L274.304 28.9336ZM275.374 27.8008C275.818 27.5045 276.309 27.2853 276.85 27.1439L276.597 26.1764C275.953 26.3449 275.359 26.6088 274.819 26.9687L275.374 27.8008ZM276.848 27.1444C277.408 27.0002 277.986 26.9277 278.583 26.9277V25.9277C277.904 25.9277 277.242 26.0102 276.599 26.176L276.848 27.1444ZM292.473 26.7148H292.973V26.2148H292.473V26.7148ZM292.473 42V42.5H292.973V42H292.473ZM288.303 42H287.803V42.5H288.303V42ZM288.303 26.7148V26.2148H287.803V26.7148H288.303ZM291.995 21.1641L291.721 21.5827L291.728 21.5866L291.995 21.1641ZM291.995 24.377L292.268 24.7956L292.274 24.7917L291.995 24.377ZM288.782 24.377L288.499 24.7891L288.509 24.7956L288.782 24.377ZM288.782 21.1641L289.053 21.5841L289.055 21.5827L288.782 21.1641ZM291.973 26.7148V42H292.973V26.7148H291.973ZM292.473 41.5H288.303V42.5H292.473V41.5ZM288.803 42V26.7148H287.803V42H288.803ZM288.303 27.2148H292.473V26.2148H288.303V27.2148ZM290.395 21.2266C290.934 21.2266 291.369 21.3523 291.721 21.5827L292.268 20.7454C291.728 20.3925 291.096 20.2266 290.395 20.2266V21.2266ZM291.728 21.5866C291.967 21.7384 292.165 22.0623 292.165 22.7637H293.165C293.165 21.8973 292.916 21.1549 292.262 20.7415L291.728 21.5866ZM292.165 22.7637C292.165 23.4505 291.97 23.791 291.716 23.9622L292.274 24.7917C292.913 24.3614 293.165 23.6263 293.165 22.7637H292.165ZM291.721 23.9583C291.369 24.1887 290.934 24.3145 290.395 24.3145V25.3145C291.096 25.3145 291.728 25.1485 292.268 24.7956L291.721 23.9583ZM290.395 24.3145C289.846 24.3145 289.407 24.188 289.055 23.9583L288.509 24.7956C289.05 25.1493 289.687 25.3145 290.395 25.3145V24.3145ZM289.065 23.9649C288.818 23.7953 288.626 23.4543 288.626 22.7637H287.626C287.626 23.6226 287.87 24.3571 288.499 24.789L289.065 23.9649ZM288.626 22.7637C288.626 22.0584 288.821 21.7341 289.053 21.5841L288.511 20.744C287.868 21.1591 287.626 21.9012 287.626 22.7637H288.626ZM289.055 21.5827C289.407 21.353 289.846 21.2266 290.395 21.2266V20.2266C289.687 20.2266 289.05 20.3918 288.509 20.7454L289.055 21.5827ZM304.628 38.8145L304.526 38.325L304.524 38.3254L304.628 38.8145ZM305.926 38.4727H306.426V37.7882L305.774 37.9963L305.926 38.4727ZM305.926 41.5762L306.131 42.0323L306.426 41.8998V41.5762H305.926ZM304.259 42.0684L304.164 41.5772L304.157 41.5789L304.259 42.0684ZM299.637 41.8359L299.445 42.2974L299.452 42.3002L299.637 41.8359ZM297.928 40.291L297.491 40.5339L297.495 40.5403L297.928 40.291ZM297.313 29.8457H297.813V29.3457H297.313V29.8457ZM295.317 29.8457H294.817V30.3457H295.317V29.8457ZM295.317 28.082L295.058 27.6546L294.817 27.8007V28.082H295.317ZM297.614 26.6875L297.873 27.1149L298.022 27.0248L298.082 26.8622L297.614 26.6875ZM298.817 23.4609V22.9609H298.47L298.349 23.2862L298.817 23.4609ZM301.483 23.4609H301.983V22.9609H301.483V23.4609ZM301.483 26.7148H300.983V27.2148H301.483V26.7148ZM305.762 26.7148H306.262V26.2148H305.762V26.7148ZM305.762 29.8457V30.3457H306.262V29.8457H305.762ZM301.483 29.8457V29.3457H300.983V29.8457H301.483ZM301.975 38.5273L301.643 38.901L301.649 38.9059L301.654 38.9106L301.975 38.5273ZM303.301 39.4512C303.791 39.4512 304.268 39.4022 304.732 39.3035L304.524 38.3254C304.131 38.409 303.724 38.4512 303.301 38.4512V39.4512ZM304.73 39.3039C305.184 39.2093 305.634 39.0909 306.079 38.949L305.774 37.9963C305.362 38.1278 304.946 38.2374 304.526 38.325L304.73 39.3039ZM305.426 38.4727V41.5762H306.426V38.4727H305.426ZM305.722 41.12C305.321 41.2999 304.805 41.4544 304.164 41.5773L304.353 42.5594C305.043 42.4271 305.639 42.2535 306.131 42.0323L305.722 41.12ZM304.157 41.5789C303.539 41.7075 302.854 41.7734 302.098 41.7734V42.7734C302.911 42.7734 303.666 42.7026 304.361 42.5578L304.157 41.5789ZM302.098 41.7734C301.24 41.7734 300.485 41.6363 299.823 41.3717L299.452 42.3002C300.249 42.6189 301.133 42.7734 302.098 42.7734V41.7734ZM299.83 41.3746C299.22 41.1195 298.731 40.6836 298.362 40.0418L297.495 40.5403C297.964 41.3568 298.615 41.9508 299.445 42.2973L299.83 41.3746ZM298.366 40.0482C298.013 39.4143 297.813 38.4852 297.813 37.2148H296.813C296.813 38.5695 297.023 39.6912 297.491 40.5338L298.366 40.0482ZM297.813 37.2148V29.8457H296.813V37.2148H297.813ZM297.313 29.3457H295.317V30.3457H297.313V29.3457ZM295.817 29.8457V28.082H294.817V29.8457H295.817ZM295.577 28.5094L297.873 27.1149L297.355 26.2601L295.058 27.6546L295.577 28.5094ZM298.082 26.8622L299.286 23.6356L298.349 23.2862L297.146 26.5128L298.082 26.8622ZM298.817 23.9609H301.483V22.9609H298.817V23.9609ZM300.983 23.4609V26.7148H301.983V23.4609H300.983ZM301.483 27.2148H305.762V26.2148H301.483V27.2148ZM305.262 26.7148V29.8457H306.262V26.7148H305.262ZM305.762 29.3457H301.483V30.3457H305.762V29.3457ZM300.983 29.8457V37.2148H301.983V29.8457H300.983ZM300.983 37.2148C300.983 37.8915 301.176 38.4859 301.643 38.901L302.308 38.1536C302.118 37.9854 301.983 37.7049 301.983 37.2148H300.983ZM301.654 38.9106C302.102 39.2855 302.667 39.4512 303.301 39.4512V38.4512C302.843 38.4512 302.523 38.3343 302.296 38.1441L301.654 38.9106ZM306.843 26.7148V26.2148H306.104L306.378 26.9005L306.843 26.7148ZM311.409 26.7148L311.883 26.5558L311.769 26.2148H311.409V26.7148ZM314.294 35.3145L314.768 35.1563L314.768 35.1554L314.294 35.3145ZM314.8 37.9668L314.301 38.0083L314.339 38.4668H314.8V37.9668ZM314.882 37.9668V38.4668H315.329L315.379 38.022L314.882 37.9668ZM315.1 36.5859L314.613 36.472L314.611 36.4819L315.1 36.5859ZM315.469 35.3145L315.942 35.4787L315.944 35.4708L315.469 35.3145ZM318.3 26.7148V26.2148H317.938L317.825 26.5585L318.3 26.7148ZM322.77 26.7148L323.238 26.8904L323.492 26.2148H322.77V26.7148ZM316.303 43.9551L315.835 43.7795L315.835 43.7813L316.303 43.9551ZM314.772 46.5938L314.4 46.2601L314.398 46.2625L314.772 46.5938ZM312.598 48.1934L312.4 47.7346L312.398 47.7354L312.598 48.1934ZM308.688 48.6445L308.766 48.1505L308.753 48.1488L308.688 48.6445ZM307.8 48.4941H307.3V48.8952L307.691 48.9822L307.8 48.4941ZM307.8 45.1855L307.915 44.6991L307.3 44.5525V45.1855H307.8ZM311.997 43.9961L311.585 43.7124L311.582 43.7167L311.997 43.9961ZM312.667 42.6426L313.141 42.8007L313.142 42.7981L312.667 42.6426ZM312.913 41.8906L313.388 42.0461L313.445 41.8735L313.377 41.7049L312.913 41.8906ZM306.843 27.2148H311.409V26.2148H306.843V27.2148ZM310.935 26.8739L313.82 35.4735L314.768 35.1554L311.883 26.5558L310.935 26.8739ZM313.819 35.4726C313.905 35.7302 313.978 35.9921 314.038 36.2586L315.014 36.0383C314.946 35.7396 314.864 35.4456 314.768 35.1563L313.819 35.4726ZM314.038 36.2586C314.099 36.5289 314.152 36.8088 314.196 37.0983L315.185 36.9485C315.137 36.6365 315.08 36.3331 315.014 36.0383L314.038 36.2586ZM314.196 37.0983C314.24 37.3872 314.275 37.6905 314.301 38.0083L315.298 37.9253C315.27 37.5869 315.232 37.2613 315.185 36.9485L314.196 37.0983ZM314.8 38.4668H314.882V37.4668H314.8V38.4668ZM315.379 38.022C315.432 37.5441 315.502 37.1003 315.589 36.69L314.611 36.4819C314.516 36.9283 314.441 37.4051 314.385 37.9116L315.379 38.022ZM315.587 36.6999C315.683 36.2887 315.802 35.8816 315.942 35.4787L314.997 35.1502C314.846 35.5858 314.718 36.0264 314.613 36.472L315.587 36.6999ZM315.944 35.4708L318.774 26.8711L317.825 26.5585L314.995 35.1582L315.944 35.4708ZM318.3 27.2148H322.77V26.2148H318.3V27.2148ZM322.302 26.5392L315.835 43.7795L316.772 44.1307L323.238 26.8904L322.302 26.5392ZM315.835 43.7813C315.46 44.791 314.979 45.6132 314.4 46.2601L315.145 46.9274C315.823 46.1706 316.363 45.2337 316.772 44.1289L315.835 43.7813ZM314.398 46.2625C313.814 46.922 313.149 47.41 312.4 47.7346L312.797 48.6521C313.689 48.2658 314.472 47.6874 315.147 46.925L314.398 46.2625ZM312.398 47.7354C311.656 48.0605 310.832 48.2266 309.919 48.2266V49.2266C310.956 49.2266 311.918 49.0372 312.799 48.6513L312.398 47.7354ZM309.919 48.2266C309.462 48.2266 309.08 48.2001 308.766 48.1507L308.61 49.1384C308.99 49.1983 309.427 49.2266 309.919 49.2266V48.2266ZM308.753 48.1488C308.417 48.1045 308.136 48.0566 307.908 48.006L307.691 48.9822C307.956 49.041 308.267 49.0934 308.623 49.1403L308.753 48.1488ZM308.3 48.4941V45.1855H307.3V48.4941H308.3ZM307.684 45.672C307.899 45.7233 308.16 45.767 308.462 45.8047L308.586 44.8125C308.305 44.7773 308.083 44.739 307.915 44.6991L307.684 45.672ZM308.462 45.8047C308.776 45.844 309.102 45.8633 309.44 45.8633V44.8633C309.14 44.8633 308.856 44.8461 308.586 44.8125L308.462 45.8047ZM309.44 45.8633C310.095 45.8633 310.687 45.7247 311.197 45.4253L310.691 44.5629C310.362 44.7557 309.952 44.8633 309.44 44.8633V45.8633ZM311.197 45.4253C311.684 45.1399 312.089 44.7543 312.411 44.2755L311.582 43.7167C311.34 44.0764 311.043 44.3562 310.691 44.5629L311.197 45.4253ZM312.409 44.2797C312.719 43.8293 312.963 43.3356 313.141 42.8007L312.192 42.4845C312.043 42.9339 311.84 43.3426 311.585 43.7124L312.409 44.2797ZM313.142 42.7981L313.388 42.0461L312.438 41.7351L312.192 42.4871L313.142 42.7981ZM313.377 41.7049L307.307 26.5291L306.378 26.9005L312.449 42.0763L313.377 41.7049Z" fill="url(#paint1_linear_233_97)"/>
<path d="M32.9994 50.7003L27.9695 49.2918C27.4418 49.1486 27.1449 48.6154 27.2934 48.1061L38.5488 10.6894C38.6972 10.1801 39.2497 9.89359 39.7774 10.0368L44.8073 11.4453C45.335 11.5886 45.6319 12.1217 45.4834 12.631L34.228 50.0478C34.0714 50.5571 33.5271 50.8515 32.9994 50.7003ZM23.5993 41.7719L27.1862 38.0795C27.5655 37.6896 27.5407 37.0689 27.1202 36.7108L19.6496 30.3686L27.1202 24.0263C27.5407 23.6683 27.5737 23.0476 27.1862 22.6576L23.5993 18.9653C23.2282 18.5833 22.6015 18.5595 22.1975 18.9255L10.3154 29.6683C9.89487 30.0423 9.89487 30.6869 10.3154 31.0609L22.1975 41.8116C22.6015 42.1777 23.2282 42.1618 23.5993 41.7719ZM50.5793 41.8196L62.4614 31.0688C62.8819 30.6948 62.8819 30.0503 62.4614 29.6763L50.5793 18.9175C50.1835 18.5595 49.5568 18.5754 49.1775 18.9573L45.5906 22.6497C45.2113 23.0396 45.2361 23.6603 45.6566 24.0184L53.1272 30.3686L45.6566 36.7108C45.2361 37.0689 45.2031 37.6896 45.5906 38.0795L49.1775 41.7719C49.5486 42.1618 50.1753 42.1777 50.5793 41.8196Z" fill="url(#paint2_linear_233_97)" stroke="black" stroke-width="0.5"/>
<path d="M25.3701 27.8568C27.1065 27.8568 28.5182 26.4332 28.5182 24.6823C28.5182 22.9313 27.1065 21.5077 25.3701 21.5077C23.6337 21.5077 22.222 22.9313 22.222 24.6823C22.222 26.4332 23.6337 27.8568 25.3701 27.8568ZM47.4067 27.8568C49.1431 27.8568 50.5548 26.4332 50.5548 24.6823C50.5548 22.9313 49.1431 21.5077 47.4067 21.5077C45.6704 21.5077 44.2586 22.9313 44.2586 24.6823C44.2586 26.4332 45.6704 27.8568 47.4067 27.8568ZM48.9808 29.4441H45.8327C44.967 29.4441 44.1848 29.7963 43.6143 30.3667C45.5966 31.4629 47.0034 33.442 47.3083 35.7932H50.5548C51.4255 35.7932 52.1289 35.0839 52.1289 34.2059V32.6186C52.1289 30.8677 50.7171 29.4441 48.9808 29.4441ZM36.3884 29.4441C39.4332 29.4441 41.8976 26.959 41.8976 23.8886C41.8976 20.8182 39.4332 18.3332 36.3884 18.3332C33.3436 18.3332 30.8792 20.8182 30.8792 23.8886C30.8792 26.959 33.3436 29.4441 36.3884 29.4441ZM40.1661 31.0314H39.7578C38.7347 31.5274 37.5985 31.825 36.3884 31.825C35.1784 31.825 34.047 31.5274 33.019 31.0314H32.6107C29.4823 31.0314 26.9441 33.5908 26.9441 36.7455V38.1741C26.9441 39.4885 28.0017 40.555 29.3052 40.555H43.4716C44.7751 40.555 45.8327 39.4885 45.8327 38.1741V36.7455C45.8327 33.5908 43.2945 31.0314 40.1661 31.0314ZM29.1626 30.3667C28.592 29.7963 27.8099 29.4441 26.9441 29.4441H23.796C22.0597 29.4441 20.6479 30.8677 20.6479 32.6186V34.2059C20.6479 35.0839 21.3514 35.7932 22.222 35.7932H25.4635C25.7734 33.442 27.1802 31.4629 29.1626 30.3667Z" fill="white" stroke="black" stroke-width="0.5"/>
<defs>
<linearGradient id="paint0_linear_233_97" x1="74.7108" y1="11.9116" x2="84.0085" y2="82.9891" gradientUnits="userSpaceOnUse">
<stop offset="0.0001" stop-color="#69D9F0"/>
<stop offset="0.498959" stop-color="#6CD97E"/>
<stop offset="1" stop-color="#009118"/>
</linearGradient>
<linearGradient id="paint1_linear_233_97" x1="74.7108" y1="11.9116" x2="84.0085" y2="82.9891" gradientUnits="userSpaceOnUse">
<stop offset="0.0001" stop-color="#69D9F0"/>
<stop offset="0.498959" stop-color="#6CD97E"/>
<stop offset="1" stop-color="#009118"/>
</linearGradient>
<linearGradient id="paint2_linear_233_97" x1="10.406" y1="9.90526" x2="43.2739" y2="62.7194" gradientUnits="userSpaceOnUse">
<stop offset="0.0001" stop-color="#69D9F0"/>
<stop offset="0.498959" stop-color="#6CD97E"/>
<stop offset="1" stop-color="#046113"/>
</linearGradient>
</defs>
</svg>
